<?xml version="1.0" ?><svg id="Layer_1" style="enable-background:new 0 0 65 65;" version="1.1" viewBox="0 0 65 65" xml:space="preserve" xmlns="http://www.w3.org/2000/svg" xmlns:xlink="http://www.w3.org/1999/xlink"><style type="text/css">
	.st0{fill:#1C1F20;}
</style><g><path class="st0" d="M36.5,3.8h16c0.4,0,0.8-0.3,0.8-0.8s-0.3-0.8-0.8-0.8h-16c-0.4,0-0.8,0.3-0.8,0.8S36.1,3.8,36.5,3.8z"/><path class="st0" d="M56.5,3.8h2c0.4,0,0.8-0.3,0.8-0.8s-0.3-0.8-0.8-0.8h-2c-0.4,0-0.8,0.3-0.8,0.8S56.1,3.8,56.5,3.8z"/><path class="st0" d="M60.5,46.3c-0.4,0-0.8,0.3-0.8,0.8v7c0,0.4,0.3,0.8,0.8,0.8s0.8-0.3,0.8-0.8v-7C61.3,46.6,60.9,46.3,60.5,46.3   z"/><path class="st0" d="M60.5,57.3c-0.4,0-0.8,0.3-0.8,0.8v1c0,0.4,0.3,0.8,0.8,0.8s0.8-0.3,0.8-0.8v-1C61.3,57.6,60.9,57.3,60.5,57.3   z"/><path class="st0" d="M46.5,59.3h-1.3V58c0-0.4-0.3-0.8-0.8-0.8s-0.8,0.3-0.8,0.8v1.3h-1.3c-0.4,0-0.8,0.3-0.8,0.8s0.3,0.8,0.8,0.8   h1.3V62c0,0.4,0.3,0.8,0.8,0.8s0.8-0.3,0.8-0.8v-1.3h1.3c0.4,0,0.8-0.3,0.8-0.8S46.9,59.3,46.5,59.3z"/><path class="st0" d="M1.5,11.8h1.3V13c0,0.4,0.3,0.8,0.8,0.8s0.8-0.3,0.8-0.8v-1.3h1.3c0.4,0,0.8-0.3,0.8-0.8s-0.3-0.8-0.8-0.8H4.3   V9c0-0.4-0.3-0.8-0.8-0.8S2.8,8.6,2.8,9v1.3H1.5c-0.4,0-0.8,0.3-0.8,0.8S1.1,11.8,1.5,11.8z"/><path class="st0" d="M59.5,7.3h-38c-2.6,0-4.8,2.1-4.8,4.8v26c0,2.6,2.1,4.8,4.8,4.8h17.8L51,51.6c0.1,0.1,0.3,0.2,0.5,0.2   c0.1,0,0.2,0,0.3-0.1c0.3-0.1,0.4-0.4,0.4-0.7v-8.3h7.3c2.6,0,4.8-2.1,4.8-4.8V12C64.3,9.4,62.1,7.3,59.5,7.3z M62.8,38   c0,1.8-1.5,3.3-3.3,3.3h-8c-0.4,0-0.8,0.3-0.8,0.8v7.5L40,41.4c-0.1-0.1-0.3-0.2-0.5-0.2h-18c-1.8,0-3.3-1.5-3.3-3.3V12   c0-1.8,1.5-3.3,3.3-3.3h38c1.8,0,3.3,1.5,3.3,3.3V38z"/><path class="st0" d="M52.5,21.3c-2.1,0-3.8,1.7-3.8,3.8s1.7,3.8,3.8,3.8s3.8-1.7,3.8-3.8S54.6,21.3,52.5,21.3z M52.5,27.3   c-1.2,0-2.3-1-2.3-2.3s1-2.3,2.3-2.3s2.3,1,2.3,2.3S53.7,27.3,52.5,27.3z"/><path class="st0" d="M40.5,21.3c-2.1,0-3.8,1.7-3.8,3.8s1.7,3.8,3.8,3.8s3.8-1.7,3.8-3.8S42.6,21.3,40.5,21.3z M40.5,27.3   c-1.2,0-2.3-1-2.3-2.3s1-2.3,2.3-2.3s2.3,1,2.3,2.3S41.7,27.3,40.5,27.3z"/><path class="st0" d="M28.5,21.3c-2.1,0-3.8,1.7-3.8,3.8s1.7,3.8,3.8,3.8s3.8-1.7,3.8-3.8S30.6,21.3,28.5,21.3z M28.5,27.3   c-1.2,0-2.3-1-2.3-2.3s1-2.3,2.3-2.3s2.3,1,2.3,2.3S29.7,27.3,28.5,27.3z"/><path class="st0" d="M44.1,50.1c0.1-0.4-0.2-0.8-0.6-0.9c-0.4-0.1-0.8,0.2-0.9,0.6c-0.3,1.5-1.6,2.5-3.2,2.5h-14   c-0.2,0-0.3,0.1-0.5,0.2l-10.8,8.1V53c0-0.4-0.3-0.8-0.8-0.8h-8c-1.8,0-3.3-1.5-3.3-3.3V27c0-1.8,1.5-3.3,3.3-3.3h8   c0.4,0,0.8-0.3,0.8-0.8s-0.3-0.8-0.8-0.8h-8c-2.6,0-4.8,2.1-4.8,4.8v22c0,2.6,2.1,4.8,4.8,4.8h7.3V62c0,0.3,0.2,0.5,0.4,0.7   c0.1,0.1,0.2,0.1,0.3,0.1c0.2,0,0.3-0.1,0.5-0.2l11.8-8.8h13.8C41.7,53.8,43.6,52.2,44.1,50.1z"/></g></svg>